PathFileType	4	(X/Y/Z)	s05c0303.trc
DataRate	CameraRate	NumFrames	NumMarkers	Units	OrigDataRate	OrigDataStartFrame	OrigNumFrames
200	200	6	48	mm	200	1250	2000
Frame#	Time	racr			lacr			c7			jug			rlel			rdr			llel			ldr			s2			lic			ric			lasi			rasi			rpsi			lpsi			rgt			lgt			rth1			rth2			rth3			rth4			rlfc			rsh1			rsh2			rsh3			rsh4			rlmal			rcal			rtoe			rmt5			rmt1			lth1			lth2			lth4			lth3			llfc			lmfc			lsh1			lsh2			lsh3			lsh4			llmal			lcal			ltoe			lmt5			SBIKE			LBIKE			RBIKE			
		X1	Y1	Z1	X2	Y2	Z2	X3	Y3	Z3	X4	Y4	Z4	X5	Y5	Z5	X6	Y6	Z6	X7	Y7	Z7	X8	Y8	Z8	X9	Y9	Z9	X10	Y10	Z10	X11	Y11	Z11	X12	Y12	Z12	X13	Y13	Z13	X14	Y14	Z14	X15	Y15	Z15	X16	Y16	Z16	X17	Y17	Z17	X18	Y18	Z18	X19	Y19	Z19	X20	Y20	Z20	X21	Y21	Z21	X22	Y22	Z22	X23	Y23	Z23	X24	Y24	Z24	X25	Y25	Z25	X26	Y26	Z26	X27	Y27	Z27	X28	Y28	Z28	X29	Y29	Z29	X30	Y30	Z30	X31	Y31	Z31	X32	Y32	Z32	X33	Y33	Z33	X34	Y34	Z34	X35	Y35	Z35	X36	Y36	Z36	X37	Y37	Z37	X38	Y38	Z38	X39	Y39	Z39	X40	Y40	Z40	X41	Y41	Z41	X42	Y42	Z42	X43	Y43	Z43	X44	Y44	Z44	X45	Y45	Z45	X46	Y46	Z46	X47	Y47	Z47	X48	Y48	Z48	
1250	6.2500	797.699651	1261.143782	-203.687815	747.084795	1250.322852	-493.351542	770.809342	1338.313866	-356.113032	703.879129	1186.697313	-332.804873	626.239339	1117.127604	-7.902952	696.757529	912.776018	-87.753017	488.242589	1089.614972	-568.337667	668.280139	933.354281	-488.441174	194.101218	1256.448945	-200.624593	294.225054	1254.770709	-377.853210	375.033695	1222.588969	-107.074743	335.630565	1188.938321	-355.341715	385.839097	1155.211415	-144.405263	251.618501	1288.501424	-167.252240	230.731945	1305.199934	-250.319962	298.154375	1101.648346	-77.360848	206.854290	1179.386064	-396.189911	349.527932	997.689658	-81.010247	400.014617	924.566195	-86.136106	404.653758	836.214120	-89.222034	430.389969	935.891564	-103.088666	437.377648	691.417026	-114.456145	339.003331	643.695035	-83.352160	283.490448	575.392636	-93.328301	204.252288	541.227768	-93.943114	301.628064	554.555623	-121.204534	97.476110	456.413289	-98.693833	39.636068	504.529978	-141.835240	126.764910	221.632499	-165.303815	71.998985	301.616923	-91.060924	0.000000	0.000000	-0.000000	280.497340	1060.303400	-445.072918	351.630814	1015.870419	-463.247263	381.459979	1037.790062	-454.779065	390.713709	936.156405	-480.539894	474.814256	808.775680	-473.712997	498.446690	793.193599	-365.337591	396.571480	702.260712	-478.040515	379.704770	617.622742	-465.014803	320.518181	553.084850	-450.620668	413.140802	604.665198	-450.152071	273.062139	447.985250	-434.296689	208.969607	423.320046	-385.831419	482.688869	325.101595	-411.780099	367.388712	325.220737	-468.019938	-172.762861	898.054935	-276.747774	-52.952591	79.252973	-474.029855	-52.899731	79.368053	-76.377277	
1251	6.2550	797.570822	1261.848980	-202.018368	748.913733	1247.929915	-492.260808	771.234019	1337.554787	-355.429279	704.767958	1185.573563	-331.024861	624.955983	1116.935865	-8.381560	696.436099	912.630113	-87.726046	489.308696	1089.423300	-570.647475	668.217027	933.342609	-488.889216	195.229600	1255.202729	-202.402252	294.703886	1251.575526	-379.826701	373.602684	1222.572276	-108.152677	335.985947	1186.026718	-356.204554	384.578107	1154.855064	-144.564608	250.528111	1287.709748	-169.780376	230.021645	1303.306129	-253.463270	297.191865	1101.580604	-77.478132	206.635219	1175.947748	-397.453735	349.975379	998.137007	-79.697288	402.204637	926.075768	-84.727537	408.582984	837.775671	-87.520648	432.309265	938.060655	-101.456444	443.280503	693.990449	-113.395614	343.996350	648.535000	-82.468318	286.639740	581.944254	-93.300286	207.125515	549.048609	-93.630485	304.965912	560.037430	-120.242398	99.189232	466.573337	-98.884295	41.927415	515.306110	-142.030957	126.276048	231.606497	-165.328412	72.191555	312.191861	-91.123420	0.000000	0.000000	-0.000000	279.348161	1055.315492	-444.934822	349.805818	1009.510675	-462.334114	379.917237	1031.001305	-454.106307	387.597980	928.942821	-478.587132	469.885158	801.001991	-470.693461	492.397661	785.211071	-362.384991	392.407178	693.989326	-476.318757	376.684927	608.956674	-463.919071	318.439999	543.412854	-450.345607	410.240520	596.416394	-449.122775	272.486675	436.689724	-434.892830	208.404754	411.686518	-386.662411	482.445660	313.915836	-411.006604	367.505388	314.068503	-467.964445	-172.841029	897.978846	-276.898209	-52.949135	79.249856	-474.065205	-52.907462	79.349309	-76.369760	
1252	6.2600	797.353178	1262.446881	-200.220996	750.863971	1245.513745	-490.976787	771.702109	1336.807186	-354.558507	705.659572	1184.511422	-329.198599	623.386566	1116.622844	-8.865415	696.111693	912.546299	-87.771272	490.647903	1089.372389	-573.015004	668.173883	933.265171	-489.369204	194.132439	1254.024404	-204.689064	295.341699	1248.323390	-382.031563	372.047637	1222.680430	-109.350881	336.534339	1183.101524	-357.424297	383.219356	1154.449093	-144.885919	249.534714	1286.245456	-172.358316	229.211085	1301.216152	-256.007928	295.588906	1101.393643	-78.112444	206.946274	1172.316119	-398.664796	350.576527	998.604088	-78.314132	404.195175	927.370609	-83.422841	412.736315	839.523213	-85.965288	434.435982	940.380323	-99.180566	449.284561	697.007526	-112.060939	349.120015	653.744376	-81.489013	290.438957	588.167447	-92.608895	210.263683	557.003427	-93.351881	308.554999	565.710770	-119.098203	101.329521	476.707868	-99.065225	44.573116	526.030045	-142.207999	126.578809	241.781526	-165.444218	73.051023	322.720980	-91.204011	0.000000	0.000000	-0.000000	278.343676	1050.218004	-444.970406	348.029064	1003.018158	-461.501188	378.474214	1024.071933	-453.344259	384.530435	921.573055	-476.471830	465.031695	793.356706	-467.547472	486.058541	777.228829	-359.050854	388.054526	686.411096	-474.500357	373.523532	600.778251	-462.702593	316.084110	534.261865	-450.025447	407.154153	588.556998	-447.985231	271.527441	425.632326	-435.164933	207.271952	401.118819	-388.092375	481.818753	302.823635	-410.668326	366.951420	303.041459	-467.913326	-172.893743	897.866149	-277.101638	-52.958919	79.219593	-474.084656	-52.921673	79.332944	-76.432968	
1253	6.2650	797.409716	1263.516729	-197.036966	752.886960	1242.906103	-488.450787	772.157165	1336.038230	-353.559575	706.646324	1183.335819	-327.278958	621.619703	1116.212017	-9.253293	695.821735	912.519778	-87.852407	492.279587	1089.530953	-575.460974	668.179673	933.152261	-489.904081	193.206582	1252.682738	-207.369568	296.105153	1245.067541	-384.328951	370.256487	1222.666319	-110.829982	337.131765	1179.983318	-358.606217	381.713058	1154.119383	-145.435757	248.366784	1284.962580	-175.082047	228.538449	1299.158138	-258.868446	297.812653	1102.266695	-75.273675	207.273719	1168.753591	-400.484002	351.381821	999.201738	-76.915097	406.378096	929.278092	-82.125432	417.071745	841.598443	-84.464776	436.644234	942.929265	-97.236579	455.331376	700.403106	-110.547550	354.228018	659.350854	-80.243963	294.452056	594.475674	-91.931264	213.861420	565.076133	-93.012023	312.448541	571.700547	-117.917130	104.042879	486.968275	-99.278744	47.739228	536.795545	-142.502910	127.630896	252.020311	-165.589022	74.675717	333.262646	-91.360388	0.000000	0.000000	-0.000000	277.465983	1045.046834	-445.110153	346.389993	996.352296	-460.560716	377.141821	1016.948316	-452.604416	381.492632	914.047052	-474.149229	460.108977	785.925752	-464.246204	479.184725	769.331155	-355.492994	383.614984	678.673738	-471.710474	370.156177	592.840313	-461.343132	313.415191	525.546115	-449.509071	403.937976	580.707093	-446.673309	270.011643	414.901073	-435.129819	205.908376	389.842617	-388.025064	480.494365	291.447557	-410.379375	365.779047	292.026808	-467.778478	-172.838143	897.776647	-277.211670	-52.961244	79.181678	-474.099126	-52.904247	79.331804	-76.456531	
1254	6.2700	796.948942	1263.666238	-195.516782	755.116334	1240.743050	-486.788319	772.741267	1335.348364	-352.374982	707.664247	1182.176885	-325.363667	619.621232	1115.723273	-9.565537	695.524818	912.489821	-87.954593	494.291295	1089.853682	-578.006746	668.283641	932.990199	-490.401172	192.233712	1251.231882	-210.526289	297.173426	1241.700804	-386.826602	368.528621	1222.739592	-112.241793	337.908865	1176.942732	-359.956429	380.081169	1153.826868	-146.047493	247.053406	1283.618153	-177.984731	227.962355	1297.094696	-262.057608	296.357853	1102.243127	-75.893117	207.913443	1165.068399	-402.468829	352.261547	1000.212616	-75.642097	408.837626	931.486341	-80.416779	421.472230	844.067658	-82.963929	438.910812	945.885074	-95.267528	461.478983	704.143923	-108.840796	359.695260	664.980166	-79.008202	298.850906	601.109312	-91.059505	217.876838	573.236771	-92.717889	316.338758	578.129654	-116.633075	107.158629	497.251357	-99.534043	51.293992	547.424938	-142.758361	129.323609	262.191406	-165.704617	76.940889	343.762211	-91.523083	0.000000	0.000000	-0.000000	276.733119	1039.733281	-445.479648	344.803085	989.564116	-459.708917	375.861260	1009.759307	-451.940181	378.429855	906.464055	-471.889457	455.056637	777.811026	-459.589280	471.966314	761.273472	-351.731825	379.022044	671.008493	-469.276570	366.500221	585.065345	-459.727879	310.517637	516.891973	-449.005490	400.311729	573.114908	-444.951373	268.115884	404.369108	-434.860834	204.231165	379.155125	-388.061215	478.581662	280.082562	-409.964795	363.978984	281.228783	-467.510110	-172.897751	897.690143	-277.443858	-52.957794	79.132090	-474.135730	-52.923882	79.306129	-76.479471	
1255	6.2750	796.381483	1263.754358	-193.612642	757.393261	1238.627791	-484.855452	773.306764	1334.525691	-350.905077	708.655801	1181.122280	-323.314121	617.617516	1115.111930	-9.930175	695.215777	912.487930	-88.092045	496.700547	1090.276705	-580.261695	668.473868	932.754882	-490.815767	191.385293	1249.750294	-214.181570	298.297427	1238.457315	-389.455432	366.620721	1222.713204	-113.844377	338.823701	1173.828410	-361.425036	379.004655	1153.592067	-145.875493	245.402770	1282.917469	-181.176651	227.570203	1294.965044	-265.722086	294.690982	1102.382643	-76.709090	208.830571	1161.369110	-404.792364	353.099723	1001.505025	-74.601921	411.173917	934.030754	-78.851919	426.001363	847.058461	-81.302549	441.105460	949.257568	-93.318285	467.841157	708.276671	-106.916089	365.288874	670.760098	-77.680334	303.518352	608.143167	-89.956135	221.999609	581.517146	-92.415059	320.900673	584.429352	-115.384466	110.779843	507.459749	-99.893527	55.192783	557.923674	-143.174378	131.922356	272.504635	-165.783457	79.817660	354.226687	-91.741706	0.000000	0.000000	-0.000000	276.164066	1034.438417	-445.936585	343.261119	982.730936	-458.956742	374.637950	1002.323445	-451.199464	375.352760	898.728397	-469.542206	449.644853	769.806196	-455.685862	463.332534	752.977755	-348.309146	374.296336	662.997353	-466.872915	362.557719	576.971617	-457.776557	307.230484	508.125114	-448.117773	396.366203	565.227494	-442.748362	265.643805	394.122011	-434.145983	201.830384	368.788646	-387.797931	476.072518	268.792023	-409.558150	361.543640	270.811942	-467.183622	-172.860270	897.697998	-277.464954	-52.966228	79.102443	-474.161992	-52.906334	79.312712	-76.494302	
